<mxfile host="app.diagrams.net" modified="2024-05-11T02:29:50.297Z" agent="Mozilla/5.0 (Macintosh; Intel Mac OS X 10_15_7) AppleWebKit/537.36 (KHTML, like Gecko) Chrome/124.0.0.0 Safari/537.36" etag="pHCrwAppd5Ezox4FEc4e" version="24.4.0" type="github">
  <diagram name="第 1 页" id="b0tyB4q1l7sVwegVqPgG">
    <mxGraphModel dx="1242" dy="842" grid="1" gridSize="10" guides="1" tooltips="1" connect="1" arrows="1" fold="1" page="1" pageScale="1" pageWidth="827" pageHeight="1169" math="0" shadow="0">
      <root>
        <mxCell id="0" />
        <mxCell id="1" parent="0" />
        <mxCell id="u9fWZa6VGtUSEMSSoy2f-5" style="edgeStyle=orthogonalEdgeStyle;rounded=0;orthogonalLoop=1;jettySize=auto;html=1;entryX=0;entryY=0.5;entryDx=0;entryDy=0;" edge="1" parent="1" source="u9fWZa6VGtUSEMSSoy2f-1" target="u9fWZa6VGtUSEMSSoy2f-2">
          <mxGeometry relative="1" as="geometry">
            <Array as="points">
              <mxPoint x="180" y="385" />
            </Array>
          </mxGeometry>
        </mxCell>
        <mxCell id="u9fWZa6VGtUSEMSSoy2f-8" style="edgeStyle=orthogonalEdgeStyle;rounded=0;orthogonalLoop=1;jettySize=auto;html=1;" edge="1" parent="1" source="u9fWZa6VGtUSEMSSoy2f-1" target="u9fWZa6VGtUSEMSSoy2f-4">
          <mxGeometry relative="1" as="geometry" />
        </mxCell>
        <mxCell id="u9fWZa6VGtUSEMSSoy2f-1" value="&lt;font style=&quot;font-size: 20px;&quot; face=&quot;Verdana&quot;&gt;源Hive表数据&lt;/font&gt;&lt;div style=&quot;font-size: 20px;&quot;&gt;&lt;font color=&quot;#cc0000&quot; style=&quot;font-size: 20px;&quot;&gt;customer_no&lt;/font&gt;&lt;/div&gt;" style="rounded=1;whiteSpace=wrap;html=1;fillColor=#ffe6cc;strokeColor=#d79b00;" vertex="1" parent="1">
          <mxGeometry x="90" y="160" width="170" height="80" as="geometry" />
        </mxCell>
        <mxCell id="u9fWZa6VGtUSEMSSoy2f-6" value="" style="edgeStyle=orthogonalEdgeStyle;rounded=0;orthogonalLoop=1;jettySize=auto;html=1;" edge="1" parent="1" source="u9fWZa6VGtUSEMSSoy2f-2" target="u9fWZa6VGtUSEMSSoy2f-3">
          <mxGeometry relative="1" as="geometry" />
        </mxCell>
        <mxCell id="u9fWZa6VGtUSEMSSoy2f-2" value="EasyData&lt;div style=&quot;font-size: 20px;&quot;&gt;API&lt;/div&gt;" style="rounded=1;whiteSpace=wrap;html=1;fontFamily=Verdana;fontSize=20;" vertex="1" parent="1">
          <mxGeometry x="262" y="340" width="210" height="90" as="geometry" />
        </mxCell>
        <mxCell id="u9fWZa6VGtUSEMSSoy2f-7" style="edgeStyle=orthogonalEdgeStyle;rounded=0;orthogonalLoop=1;jettySize=auto;html=1;entryX=0.5;entryY=1;entryDx=0;entryDy=0;" edge="1" parent="1" source="u9fWZa6VGtUSEMSSoy2f-3" target="u9fWZa6VGtUSEMSSoy2f-4">
          <mxGeometry relative="1" as="geometry" />
        </mxCell>
        <mxCell id="u9fWZa6VGtUSEMSSoy2f-3" value="服务端接口调用LF&lt;div style=&quot;&quot;&gt;&lt;font style=&quot;font-size: 16px;&quot;&gt;open/contacts/identities&lt;/font&gt;&lt;br style=&quot;font-size: 20px;&quot;&gt;&lt;/div&gt;" style="rounded=1;whiteSpace=wrap;html=1;fontSize=20;fontFamily=Verdana;" vertex="1" parent="1">
          <mxGeometry x="522" y="340" width="220" height="90" as="geometry" />
        </mxCell>
        <mxCell id="u9fWZa6VGtUSEMSSoy2f-4" value="MQ2Hive&lt;div&gt;&lt;font style=&quot;font-size: 16px;&quot;&gt;身份json&lt;/font&gt;&lt;/div&gt;" style="rounded=1;whiteSpace=wrap;html=1;fillColor=#d5e8d4;strokeColor=#82b366;fontFamily=Verdana;fontSize=20;" vertex="1" parent="1">
          <mxGeometry x="750" y="160" width="150" height="80" as="geometry" />
        </mxCell>
        <mxCell id="u9fWZa6VGtUSEMSSoy2f-9" value="对比验证" style="text;html=1;align=center;verticalAlign=middle;whiteSpace=wrap;rounded=0;fontFamily=Verdana;fontSize=24;fontColor=#CC0000;" vertex="1" parent="1">
          <mxGeometry x="440" y="160" width="120" height="30" as="geometry" />
        </mxCell>
      </root>
    </mxGraphModel>
  </diagram>
</mxfile>
